<mxfile host="app.diagrams.net" modified="2023-08-03T08:48:06.914Z" agent="Mozilla/5.0 (Macintosh; Intel Mac OS X 10_15_7) AppleWebKit/605.1.15 (KHTML, like Gecko) Version/15.6.1 Safari/605.1.15" etag="P1GHHVvHYzjQhzLBZLf2" version="21.6.6" type="github">
  <diagram name="Page-1" id="OymDslJyuLN4I2w5_QEG">
    <mxGraphModel dx="797" dy="459" grid="0" gridSize="10" guides="1" tooltips="1" connect="1" arrows="1" fold="1" page="1" pageScale="1" pageWidth="850" pageHeight="1100" math="0" shadow="0">
      <root>
        <mxCell id="0" />
        <mxCell id="1" parent="0" />
        <mxCell id="87Bv8u5huuqqNGazQj6s-1" value="" style="rounded=0;whiteSpace=wrap;html=1;fillColor=#dae8fc;strokeColor=#6c8ebf;" vertex="1" parent="1">
          <mxGeometry x="70" y="430" width="210" height="100" as="geometry" />
        </mxCell>
        <mxCell id="87Bv8u5huuqqNGazQj6s-4" value="&lt;b&gt;&lt;font style=&quot;font-size: 24px;&quot;&gt;T5 Model&lt;/font&gt;&lt;/b&gt;" style="text;html=1;strokeColor=none;fillColor=none;align=center;verticalAlign=middle;whiteSpace=wrap;rounded=0;" vertex="1" parent="1">
          <mxGeometry x="145" y="465" width="60" height="30" as="geometry" />
        </mxCell>
        <mxCell id="87Bv8u5huuqqNGazQj6s-9" value="Query: {query} Document: {document} Relevant:" style="text;html=1;strokeColor=none;fillColor=none;align=left;verticalAlign=middle;whiteSpace=wrap;rounded=0;fontSize=10;" vertex="1" parent="1">
          <mxGeometry x="70" y="560" width="220" height="30" as="geometry" />
        </mxCell>
        <mxCell id="87Bv8u5huuqqNGazQj6s-13" value="" style="shape=flexArrow;endArrow=classic;html=1;rounded=1;endWidth=35;endSize=6.79;fillColor=#00a3d7;strokeColor=none;shadow=0;" edge="1" parent="1">
          <mxGeometry width="50" height="50" relative="1" as="geometry">
            <mxPoint x="174.5" y="420" as="sourcePoint" />
            <mxPoint x="175" y="390" as="targetPoint" />
          </mxGeometry>
        </mxCell>
        <mxCell id="87Bv8u5huuqqNGazQj6s-17" value="" style="rounded=1;whiteSpace=wrap;html=1;" vertex="1" parent="1">
          <mxGeometry x="70" y="350" width="210" height="20" as="geometry" />
        </mxCell>
        <mxCell id="87Bv8u5huuqqNGazQj6s-18" value="" style="ellipse;whiteSpace=wrap;html=1;aspect=fixed;" vertex="1" parent="1">
          <mxGeometry x="80" y="355" width="10" height="10" as="geometry" />
        </mxCell>
        <mxCell id="87Bv8u5huuqqNGazQj6s-22" value="" style="ellipse;whiteSpace=wrap;html=1;aspect=fixed;" vertex="1" parent="1">
          <mxGeometry x="100" y="355" width="10" height="10" as="geometry" />
        </mxCell>
        <mxCell id="87Bv8u5huuqqNGazQj6s-23" value="" style="ellipse;whiteSpace=wrap;html=1;aspect=fixed;" vertex="1" parent="1">
          <mxGeometry x="120" y="355" width="10" height="10" as="geometry" />
        </mxCell>
        <mxCell id="87Bv8u5huuqqNGazQj6s-24" value="" style="ellipse;whiteSpace=wrap;html=1;aspect=fixed;" vertex="1" parent="1">
          <mxGeometry x="140" y="355" width="10" height="10" as="geometry" />
        </mxCell>
        <mxCell id="87Bv8u5huuqqNGazQj6s-25" value="" style="ellipse;whiteSpace=wrap;html=1;aspect=fixed;" vertex="1" parent="1">
          <mxGeometry x="160" y="355" width="10" height="10" as="geometry" />
        </mxCell>
        <mxCell id="87Bv8u5huuqqNGazQj6s-26" value="" style="ellipse;whiteSpace=wrap;html=1;aspect=fixed;" vertex="1" parent="1">
          <mxGeometry x="180" y="355" width="10" height="10" as="geometry" />
        </mxCell>
        <mxCell id="87Bv8u5huuqqNGazQj6s-27" value="" style="ellipse;whiteSpace=wrap;html=1;aspect=fixed;" vertex="1" parent="1">
          <mxGeometry x="200" y="355" width="10" height="10" as="geometry" />
        </mxCell>
        <mxCell id="87Bv8u5huuqqNGazQj6s-28" value="" style="ellipse;whiteSpace=wrap;html=1;aspect=fixed;" vertex="1" parent="1">
          <mxGeometry x="220" y="355" width="10" height="10" as="geometry" />
        </mxCell>
        <mxCell id="87Bv8u5huuqqNGazQj6s-29" value="" style="ellipse;whiteSpace=wrap;html=1;aspect=fixed;" vertex="1" parent="1">
          <mxGeometry x="240" y="355" width="10" height="10" as="geometry" />
        </mxCell>
        <mxCell id="87Bv8u5huuqqNGazQj6s-30" value="..." style="text;html=1;strokeColor=none;fillColor=none;align=center;verticalAlign=middle;whiteSpace=wrap;rounded=0;" vertex="1" parent="1">
          <mxGeometry x="250" y="355" width="30" height="10" as="geometry" />
        </mxCell>
        <mxCell id="87Bv8u5huuqqNGazQj6s-32" value="&lt;font style=&quot;font-size: 10px;&quot; face=&quot;Courier New&quot;&gt;True&lt;/font&gt;" style="text;html=1;strokeColor=none;fillColor=none;align=center;verticalAlign=middle;whiteSpace=wrap;rounded=0;" vertex="1" parent="1">
          <mxGeometry x="95" y="365" width="60" height="30" as="geometry" />
        </mxCell>
        <mxCell id="87Bv8u5huuqqNGazQj6s-33" value="&lt;font style=&quot;font-size: 10px;&quot; face=&quot;Courier New&quot;&gt;False&lt;/font&gt;" style="text;html=1;strokeColor=none;fillColor=none;align=center;verticalAlign=middle;whiteSpace=wrap;rounded=0;" vertex="1" parent="1">
          <mxGeometry x="175" y="365" width="60" height="30" as="geometry" />
        </mxCell>
        <mxCell id="87Bv8u5huuqqNGazQj6s-34" value="" style="endArrow=classic;html=1;rounded=0;exitX=1;exitY=0;exitDx=0;exitDy=0;" edge="1" parent="1" source="87Bv8u5huuqqNGazQj6s-23">
          <mxGeometry width="50" height="50" relative="1" as="geometry">
            <mxPoint x="130" y="355" as="sourcePoint" />
            <mxPoint x="170" y="320" as="targetPoint" />
          </mxGeometry>
        </mxCell>
        <mxCell id="87Bv8u5huuqqNGazQj6s-35" value="" style="endArrow=classic;html=1;rounded=0;exitX=0;exitY=0;exitDx=0;exitDy=0;" edge="1" parent="1" source="87Bv8u5huuqqNGazQj6s-27">
          <mxGeometry width="50" height="50" relative="1" as="geometry">
            <mxPoint x="140" y="365" as="sourcePoint" />
            <mxPoint x="170" y="320" as="targetPoint" />
          </mxGeometry>
        </mxCell>
        <mxCell id="87Bv8u5huuqqNGazQj6s-36" value="" style="rounded=1;whiteSpace=wrap;html=1;fillColor=#dae8fc;strokeColor=#6c8ebf;" vertex="1" parent="1">
          <mxGeometry x="140" y="300" width="60" height="20" as="geometry" />
        </mxCell>
        <mxCell id="87Bv8u5huuqqNGazQj6s-37" value="&lt;font style=&quot;font-size: 10px;&quot;&gt;SOFTMAX&lt;/font&gt;" style="text;html=1;strokeColor=none;fillColor=none;align=center;verticalAlign=middle;whiteSpace=wrap;rounded=0;" vertex="1" parent="1">
          <mxGeometry x="140" y="295" width="60" height="25" as="geometry" />
        </mxCell>
        <mxCell id="87Bv8u5huuqqNGazQj6s-38" value="" style="endArrow=classic;html=1;rounded=0;" edge="1" parent="1" target="87Bv8u5huuqqNGazQj6s-39">
          <mxGeometry width="50" height="50" relative="1" as="geometry">
            <mxPoint x="170" y="300" as="sourcePoint" />
            <mxPoint x="170" y="280" as="targetPoint" />
          </mxGeometry>
        </mxCell>
        <mxCell id="87Bv8u5huuqqNGazQj6s-39" value="" style="ellipse;whiteSpace=wrap;html=1;aspect=fixed;" vertex="1" parent="1">
          <mxGeometry x="165" y="270" width="10" height="10" as="geometry" />
        </mxCell>
        <mxCell id="87Bv8u5huuqqNGazQj6s-40" value="&lt;font style=&quot;font-size: 9px;&quot;&gt;Ranking Score&lt;/font&gt;" style="text;html=1;strokeColor=none;fillColor=none;align=center;verticalAlign=middle;whiteSpace=wrap;rounded=0;" vertex="1" parent="1">
          <mxGeometry x="80" y="260" width="100" height="30" as="geometry" />
        </mxCell>
        <mxCell id="87Bv8u5huuqqNGazQj6s-42" value="" style="shape=flexArrow;endArrow=classic;html=1;rounded=1;endWidth=32.22222222222222;endSize=4.3999999999999995;fillColor=#00a3d7;strokeColor=none;shadow=0;" edge="1" parent="1">
          <mxGeometry width="50" height="50" relative="1" as="geometry">
            <mxPoint x="175" y="560" as="sourcePoint" />
            <mxPoint x="175.56" y="540" as="targetPoint" />
          </mxGeometry>
        </mxCell>
        <mxCell id="87Bv8u5huuqqNGazQj6s-44" value="" style="endArrow=classic;html=1;rounded=0;entryX=0.5;entryY=1;entryDx=0;entryDy=0;" edge="1" parent="1" target="87Bv8u5huuqqNGazQj6s-46">
          <mxGeometry width="50" height="50" relative="1" as="geometry">
            <mxPoint x="170" y="270" as="sourcePoint" />
            <mxPoint x="170" y="250" as="targetPoint" />
          </mxGeometry>
        </mxCell>
        <mxCell id="87Bv8u5huuqqNGazQj6s-45" value="" style="rounded=1;whiteSpace=wrap;html=1;fillColor=#d5e8d4;strokeColor=#82b366;" vertex="1" parent="1">
          <mxGeometry x="140" y="225" width="60" height="20" as="geometry" />
        </mxCell>
        <mxCell id="87Bv8u5huuqqNGazQj6s-46" value="&lt;font style=&quot;font-size: 10px;&quot;&gt;CE Loss&lt;/font&gt;" style="text;html=1;strokeColor=none;fillColor=none;align=center;verticalAlign=middle;whiteSpace=wrap;rounded=0;" vertex="1" parent="1">
          <mxGeometry x="140" y="220" width="60" height="25" as="geometry" />
        </mxCell>
        <mxCell id="87Bv8u5huuqqNGazQj6s-47" value="" style="rounded=0;whiteSpace=wrap;html=1;fillColor=#dae8fc;strokeColor=#6c8ebf;" vertex="1" parent="1">
          <mxGeometry x="315" y="430" width="210" height="100" as="geometry" />
        </mxCell>
        <mxCell id="87Bv8u5huuqqNGazQj6s-48" value="&lt;b&gt;&lt;font style=&quot;font-size: 24px;&quot;&gt;T5 Model&lt;/font&gt;&lt;/b&gt;" style="text;html=1;strokeColor=none;fillColor=none;align=center;verticalAlign=middle;whiteSpace=wrap;rounded=0;" vertex="1" parent="1">
          <mxGeometry x="390" y="465" width="60" height="30" as="geometry" />
        </mxCell>
        <mxCell id="87Bv8u5huuqqNGazQj6s-49" value="Query: {query} Document: {document}" style="text;html=1;strokeColor=none;fillColor=none;align=left;verticalAlign=middle;whiteSpace=wrap;rounded=0;fontSize=10;" vertex="1" parent="1">
          <mxGeometry x="315" y="560" width="220" height="30" as="geometry" />
        </mxCell>
        <mxCell id="87Bv8u5huuqqNGazQj6s-50" value="" style="shape=flexArrow;endArrow=classic;html=1;rounded=1;endWidth=35;endSize=6.79;fillColor=#00a3d7;strokeColor=none;shadow=0;" edge="1" parent="1">
          <mxGeometry width="50" height="50" relative="1" as="geometry">
            <mxPoint x="419.5" y="420" as="sourcePoint" />
            <mxPoint x="420" y="390" as="targetPoint" />
          </mxGeometry>
        </mxCell>
        <mxCell id="87Bv8u5huuqqNGazQj6s-51" value="" style="rounded=1;whiteSpace=wrap;html=1;" vertex="1" parent="1">
          <mxGeometry x="315" y="350" width="210" height="20" as="geometry" />
        </mxCell>
        <mxCell id="87Bv8u5huuqqNGazQj6s-52" value="" style="ellipse;whiteSpace=wrap;html=1;aspect=fixed;" vertex="1" parent="1">
          <mxGeometry x="325" y="355" width="10" height="10" as="geometry" />
        </mxCell>
        <mxCell id="87Bv8u5huuqqNGazQj6s-53" value="" style="ellipse;whiteSpace=wrap;html=1;aspect=fixed;" vertex="1" parent="1">
          <mxGeometry x="345" y="355" width="10" height="10" as="geometry" />
        </mxCell>
        <mxCell id="87Bv8u5huuqqNGazQj6s-54" value="" style="ellipse;whiteSpace=wrap;html=1;aspect=fixed;" vertex="1" parent="1">
          <mxGeometry x="365" y="355" width="10" height="10" as="geometry" />
        </mxCell>
        <mxCell id="87Bv8u5huuqqNGazQj6s-55" value="" style="ellipse;whiteSpace=wrap;html=1;aspect=fixed;" vertex="1" parent="1">
          <mxGeometry x="385" y="355" width="10" height="10" as="geometry" />
        </mxCell>
        <mxCell id="87Bv8u5huuqqNGazQj6s-56" value="" style="ellipse;whiteSpace=wrap;html=1;aspect=fixed;" vertex="1" parent="1">
          <mxGeometry x="405" y="355" width="10" height="10" as="geometry" />
        </mxCell>
        <mxCell id="87Bv8u5huuqqNGazQj6s-57" value="" style="ellipse;whiteSpace=wrap;html=1;aspect=fixed;" vertex="1" parent="1">
          <mxGeometry x="425" y="355" width="10" height="10" as="geometry" />
        </mxCell>
        <mxCell id="87Bv8u5huuqqNGazQj6s-58" value="" style="ellipse;whiteSpace=wrap;html=1;aspect=fixed;" vertex="1" parent="1">
          <mxGeometry x="445" y="355" width="10" height="10" as="geometry" />
        </mxCell>
        <mxCell id="87Bv8u5huuqqNGazQj6s-59" value="" style="ellipse;whiteSpace=wrap;html=1;aspect=fixed;" vertex="1" parent="1">
          <mxGeometry x="465" y="355" width="10" height="10" as="geometry" />
        </mxCell>
        <mxCell id="87Bv8u5huuqqNGazQj6s-60" value="" style="ellipse;whiteSpace=wrap;html=1;aspect=fixed;" vertex="1" parent="1">
          <mxGeometry x="485" y="355" width="10" height="10" as="geometry" />
        </mxCell>
        <mxCell id="87Bv8u5huuqqNGazQj6s-61" value="..." style="text;html=1;strokeColor=none;fillColor=none;align=center;verticalAlign=middle;whiteSpace=wrap;rounded=0;" vertex="1" parent="1">
          <mxGeometry x="495" y="355" width="30" height="10" as="geometry" />
        </mxCell>
        <mxCell id="87Bv8u5huuqqNGazQj6s-63" value="&lt;font style=&quot;font-size: 10px;&quot; face=&quot;Courier New&quot;&gt;Extra_id_10&lt;/font&gt;" style="text;html=1;strokeColor=none;fillColor=none;align=center;verticalAlign=middle;whiteSpace=wrap;rounded=0;" vertex="1" parent="1">
          <mxGeometry x="460" y="365" width="60" height="30" as="geometry" />
        </mxCell>
        <mxCell id="87Bv8u5huuqqNGazQj6s-69" value="" style="ellipse;whiteSpace=wrap;html=1;aspect=fixed;" vertex="1" parent="1">
          <mxGeometry x="410" y="270" width="10" height="10" as="geometry" />
        </mxCell>
        <mxCell id="87Bv8u5huuqqNGazQj6s-70" value="&lt;font style=&quot;font-size: 9px;&quot;&gt;Ranking Score&lt;/font&gt;" style="text;html=1;strokeColor=none;fillColor=none;align=center;verticalAlign=middle;whiteSpace=wrap;rounded=0;" vertex="1" parent="1">
          <mxGeometry x="325" y="260" width="100" height="30" as="geometry" />
        </mxCell>
        <mxCell id="87Bv8u5huuqqNGazQj6s-71" value="" style="shape=flexArrow;endArrow=classic;html=1;rounded=1;endWidth=32.22222222222222;endSize=4.3999999999999995;fillColor=#00a3d7;strokeColor=none;shadow=0;" edge="1" parent="1">
          <mxGeometry width="50" height="50" relative="1" as="geometry">
            <mxPoint x="420" y="560" as="sourcePoint" />
            <mxPoint x="420.56" y="540" as="targetPoint" />
          </mxGeometry>
        </mxCell>
        <mxCell id="87Bv8u5huuqqNGazQj6s-72" value="" style="endArrow=classic;html=1;rounded=0;entryX=0.5;entryY=1;entryDx=0;entryDy=0;" edge="1" parent="1" target="87Bv8u5huuqqNGazQj6s-74">
          <mxGeometry width="50" height="50" relative="1" as="geometry">
            <mxPoint x="415" y="270" as="sourcePoint" />
            <mxPoint x="415" y="250" as="targetPoint" />
          </mxGeometry>
        </mxCell>
        <mxCell id="87Bv8u5huuqqNGazQj6s-73" value="" style="rounded=1;whiteSpace=wrap;html=1;fillColor=#d5e8d4;strokeColor=#82b366;" vertex="1" parent="1">
          <mxGeometry x="377.5" y="222.5" width="75" height="20" as="geometry" />
        </mxCell>
        <mxCell id="87Bv8u5huuqqNGazQj6s-74" value="&lt;font style=&quot;font-size: 10px;&quot;&gt;RankNet Loss&lt;/font&gt;" style="text;html=1;strokeColor=none;fillColor=none;align=center;verticalAlign=middle;whiteSpace=wrap;rounded=0;" vertex="1" parent="1">
          <mxGeometry x="372.5" y="217.5" width="85" height="25" as="geometry" />
        </mxCell>
        <mxCell id="87Bv8u5huuqqNGazQj6s-75" value="" style="rounded=0;whiteSpace=wrap;html=1;fillColor=#dae8fc;strokeColor=#6c8ebf;" vertex="1" parent="1">
          <mxGeometry x="560" y="430" width="210" height="100" as="geometry" />
        </mxCell>
        <mxCell id="87Bv8u5huuqqNGazQj6s-76" value="&lt;b&gt;&lt;font style=&quot;font-size: 24px;&quot;&gt;T5 Model&lt;/font&gt;&lt;/b&gt;" style="text;html=1;strokeColor=none;fillColor=none;align=center;verticalAlign=middle;whiteSpace=wrap;rounded=0;" vertex="1" parent="1">
          <mxGeometry x="635" y="465" width="60" height="30" as="geometry" />
        </mxCell>
        <mxCell id="87Bv8u5huuqqNGazQj6s-77" value="Query: {query} Document: {document} Relevant:" style="text;html=1;strokeColor=none;fillColor=none;align=left;verticalAlign=middle;whiteSpace=wrap;rounded=0;fontSize=10;" vertex="1" parent="1">
          <mxGeometry x="560" y="560" width="220" height="30" as="geometry" />
        </mxCell>
        <mxCell id="87Bv8u5huuqqNGazQj6s-78" value="" style="shape=flexArrow;endArrow=classic;html=1;rounded=1;endWidth=35;endSize=6.79;fillColor=#00a3d7;strokeColor=none;shadow=0;" edge="1" parent="1">
          <mxGeometry width="50" height="50" relative="1" as="geometry">
            <mxPoint x="664.5" y="420" as="sourcePoint" />
            <mxPoint x="665" y="390" as="targetPoint" />
          </mxGeometry>
        </mxCell>
        <mxCell id="87Bv8u5huuqqNGazQj6s-79" value="" style="rounded=1;whiteSpace=wrap;html=1;" vertex="1" parent="1">
          <mxGeometry x="560" y="350" width="210" height="20" as="geometry" />
        </mxCell>
        <mxCell id="87Bv8u5huuqqNGazQj6s-80" value="" style="ellipse;whiteSpace=wrap;html=1;aspect=fixed;" vertex="1" parent="1">
          <mxGeometry x="570" y="355" width="10" height="10" as="geometry" />
        </mxCell>
        <mxCell id="87Bv8u5huuqqNGazQj6s-81" value="" style="ellipse;whiteSpace=wrap;html=1;aspect=fixed;" vertex="1" parent="1">
          <mxGeometry x="590" y="355" width="10" height="10" as="geometry" />
        </mxCell>
        <mxCell id="87Bv8u5huuqqNGazQj6s-82" value="" style="ellipse;whiteSpace=wrap;html=1;aspect=fixed;" vertex="1" parent="1">
          <mxGeometry x="610" y="355" width="10" height="10" as="geometry" />
        </mxCell>
        <mxCell id="87Bv8u5huuqqNGazQj6s-83" value="" style="ellipse;whiteSpace=wrap;html=1;aspect=fixed;" vertex="1" parent="1">
          <mxGeometry x="630" y="355" width="10" height="10" as="geometry" />
        </mxCell>
        <mxCell id="87Bv8u5huuqqNGazQj6s-84" value="" style="ellipse;whiteSpace=wrap;html=1;aspect=fixed;" vertex="1" parent="1">
          <mxGeometry x="650" y="355" width="10" height="10" as="geometry" />
        </mxCell>
        <mxCell id="87Bv8u5huuqqNGazQj6s-85" value="" style="ellipse;whiteSpace=wrap;html=1;aspect=fixed;" vertex="1" parent="1">
          <mxGeometry x="670" y="355" width="10" height="10" as="geometry" />
        </mxCell>
        <mxCell id="87Bv8u5huuqqNGazQj6s-86" value="" style="ellipse;whiteSpace=wrap;html=1;aspect=fixed;" vertex="1" parent="1">
          <mxGeometry x="690" y="355" width="10" height="10" as="geometry" />
        </mxCell>
        <mxCell id="87Bv8u5huuqqNGazQj6s-87" value="" style="ellipse;whiteSpace=wrap;html=1;aspect=fixed;" vertex="1" parent="1">
          <mxGeometry x="710" y="355" width="10" height="10" as="geometry" />
        </mxCell>
        <mxCell id="87Bv8u5huuqqNGazQj6s-88" value="" style="ellipse;whiteSpace=wrap;html=1;aspect=fixed;" vertex="1" parent="1">
          <mxGeometry x="730" y="355" width="10" height="10" as="geometry" />
        </mxCell>
        <mxCell id="87Bv8u5huuqqNGazQj6s-89" value="..." style="text;html=1;strokeColor=none;fillColor=none;align=center;verticalAlign=middle;whiteSpace=wrap;rounded=0;" vertex="1" parent="1">
          <mxGeometry x="740" y="355" width="30" height="10" as="geometry" />
        </mxCell>
        <mxCell id="87Bv8u5huuqqNGazQj6s-90" value="&lt;font style=&quot;font-size: 10px;&quot; face=&quot;Courier New&quot;&gt;True&lt;/font&gt;" style="text;html=1;strokeColor=none;fillColor=none;align=center;verticalAlign=middle;whiteSpace=wrap;rounded=0;" vertex="1" parent="1">
          <mxGeometry x="585" y="365" width="60" height="30" as="geometry" />
        </mxCell>
        <mxCell id="87Bv8u5huuqqNGazQj6s-91" value="&lt;font style=&quot;font-size: 10px;&quot; face=&quot;Courier New&quot;&gt;False&lt;/font&gt;" style="text;html=1;strokeColor=none;fillColor=none;align=center;verticalAlign=middle;whiteSpace=wrap;rounded=0;" vertex="1" parent="1">
          <mxGeometry x="665" y="365" width="60" height="30" as="geometry" />
        </mxCell>
        <mxCell id="87Bv8u5huuqqNGazQj6s-92" value="" style="endArrow=classic;html=1;rounded=0;exitX=1;exitY=0;exitDx=0;exitDy=0;" edge="1" parent="1" source="87Bv8u5huuqqNGazQj6s-82">
          <mxGeometry width="50" height="50" relative="1" as="geometry">
            <mxPoint x="620" y="355" as="sourcePoint" />
            <mxPoint x="660" y="320" as="targetPoint" />
          </mxGeometry>
        </mxCell>
        <mxCell id="87Bv8u5huuqqNGazQj6s-93" value="" style="endArrow=classic;html=1;rounded=0;exitX=0;exitY=0;exitDx=0;exitDy=0;" edge="1" parent="1" source="87Bv8u5huuqqNGazQj6s-86">
          <mxGeometry width="50" height="50" relative="1" as="geometry">
            <mxPoint x="630" y="365" as="sourcePoint" />
            <mxPoint x="660" y="320" as="targetPoint" />
          </mxGeometry>
        </mxCell>
        <mxCell id="87Bv8u5huuqqNGazQj6s-94" value="" style="rounded=1;whiteSpace=wrap;html=1;fillColor=#dae8fc;strokeColor=#6c8ebf;" vertex="1" parent="1">
          <mxGeometry x="625" y="300" width="70" height="20" as="geometry" />
        </mxCell>
        <mxCell id="87Bv8u5huuqqNGazQj6s-95" value="&lt;font style=&quot;font-size: 10px;&quot;&gt;DIFFERENCE&lt;/font&gt;" style="text;html=1;strokeColor=none;fillColor=none;align=center;verticalAlign=middle;whiteSpace=wrap;rounded=0;" vertex="1" parent="1">
          <mxGeometry x="630" y="295" width="60" height="25" as="geometry" />
        </mxCell>
        <mxCell id="87Bv8u5huuqqNGazQj6s-96" value="" style="endArrow=classic;html=1;rounded=0;" edge="1" parent="1" target="87Bv8u5huuqqNGazQj6s-97">
          <mxGeometry width="50" height="50" relative="1" as="geometry">
            <mxPoint x="660" y="300" as="sourcePoint" />
            <mxPoint x="660" y="280" as="targetPoint" />
          </mxGeometry>
        </mxCell>
        <mxCell id="87Bv8u5huuqqNGazQj6s-97" value="" style="ellipse;whiteSpace=wrap;html=1;aspect=fixed;" vertex="1" parent="1">
          <mxGeometry x="655" y="270" width="10" height="10" as="geometry" />
        </mxCell>
        <mxCell id="87Bv8u5huuqqNGazQj6s-98" value="&lt;font style=&quot;font-size: 9px;&quot;&gt;Ranking Score&lt;/font&gt;" style="text;html=1;strokeColor=none;fillColor=none;align=center;verticalAlign=middle;whiteSpace=wrap;rounded=0;" vertex="1" parent="1">
          <mxGeometry x="570" y="260" width="100" height="30" as="geometry" />
        </mxCell>
        <mxCell id="87Bv8u5huuqqNGazQj6s-99" value="" style="shape=flexArrow;endArrow=classic;html=1;rounded=1;endWidth=32.22222222222222;endSize=4.3999999999999995;fillColor=#00a3d7;strokeColor=none;shadow=0;" edge="1" parent="1">
          <mxGeometry width="50" height="50" relative="1" as="geometry">
            <mxPoint x="665" y="560" as="sourcePoint" />
            <mxPoint x="665.56" y="540" as="targetPoint" />
          </mxGeometry>
        </mxCell>
        <mxCell id="87Bv8u5huuqqNGazQj6s-100" value="" style="endArrow=classic;html=1;rounded=0;entryX=0.5;entryY=1;entryDx=0;entryDy=0;" edge="1" parent="1" target="87Bv8u5huuqqNGazQj6s-105">
          <mxGeometry width="50" height="50" relative="1" as="geometry">
            <mxPoint x="660" y="270" as="sourcePoint" />
            <mxPoint x="660" y="245" as="targetPoint" />
          </mxGeometry>
        </mxCell>
        <mxCell id="87Bv8u5huuqqNGazQj6s-103" value="" style="endArrow=classic;html=1;rounded=0;exitX=0;exitY=0;exitDx=0;exitDy=0;entryX=0.5;entryY=1;entryDx=0;entryDy=0;" edge="1" parent="1" source="87Bv8u5huuqqNGazQj6s-60" target="87Bv8u5huuqqNGazQj6s-69">
          <mxGeometry width="50" height="50" relative="1" as="geometry">
            <mxPoint x="446" y="356" as="sourcePoint" />
            <mxPoint x="415" y="320" as="targetPoint" />
          </mxGeometry>
        </mxCell>
        <mxCell id="87Bv8u5huuqqNGazQj6s-104" value="" style="rounded=1;whiteSpace=wrap;html=1;fillColor=#d5e8d4;strokeColor=#82b366;" vertex="1" parent="1">
          <mxGeometry x="622.5" y="222.5" width="75" height="20" as="geometry" />
        </mxCell>
        <mxCell id="87Bv8u5huuqqNGazQj6s-105" value="&lt;font style=&quot;font-size: 10px;&quot;&gt;RankNet Loss&lt;/font&gt;" style="text;html=1;strokeColor=none;fillColor=none;align=center;verticalAlign=middle;whiteSpace=wrap;rounded=0;" vertex="1" parent="1">
          <mxGeometry x="617.5" y="217.5" width="85" height="25" as="geometry" />
        </mxCell>
        <mxCell id="87Bv8u5huuqqNGazQj6s-106" value="&lt;b&gt;Dense&lt;/b&gt;" style="text;html=1;strokeColor=none;fillColor=none;align=center;verticalAlign=middle;whiteSpace=wrap;rounded=0;" vertex="1" parent="1">
          <mxGeometry x="195" y="395" width="60" height="30" as="geometry" />
        </mxCell>
        <mxCell id="87Bv8u5huuqqNGazQj6s-107" value="&lt;b&gt;Dense&lt;/b&gt;" style="text;html=1;strokeColor=none;fillColor=none;align=center;verticalAlign=middle;whiteSpace=wrap;rounded=0;" vertex="1" parent="1">
          <mxGeometry x="440" y="393" width="60" height="30" as="geometry" />
        </mxCell>
        <mxCell id="87Bv8u5huuqqNGazQj6s-108" value="&lt;b&gt;Dense&lt;/b&gt;" style="text;html=1;strokeColor=none;fillColor=none;align=center;verticalAlign=middle;whiteSpace=wrap;rounded=0;" vertex="1" parent="1">
          <mxGeometry x="685" y="395" width="60" height="30" as="geometry" />
        </mxCell>
        <mxCell id="87Bv8u5huuqqNGazQj6s-109" value="&lt;font style=&quot;font-size: 15px;&quot;&gt;(a)&lt;/font&gt;" style="text;html=1;strokeColor=none;fillColor=none;align=center;verticalAlign=middle;whiteSpace=wrap;rounded=0;" vertex="1" parent="1">
          <mxGeometry x="129" y="590" width="92" height="30" as="geometry" />
        </mxCell>
        <mxCell id="87Bv8u5huuqqNGazQj6s-110" value="&lt;font style=&quot;font-size: 15px;&quot;&gt;(b)&lt;/font&gt;" style="text;html=1;strokeColor=none;fillColor=none;align=center;verticalAlign=middle;whiteSpace=wrap;rounded=0;" vertex="1" parent="1">
          <mxGeometry x="619" y="590" width="92" height="30" as="geometry" />
        </mxCell>
        <mxCell id="87Bv8u5huuqqNGazQj6s-111" value="&lt;font style=&quot;font-size: 15px;&quot;&gt;(b)&lt;/font&gt;" style="text;html=1;strokeColor=none;fillColor=none;align=center;verticalAlign=middle;whiteSpace=wrap;rounded=0;" vertex="1" parent="1">
          <mxGeometry x="374" y="590" width="92" height="30" as="geometry" />
        </mxCell>
      </root>
    </mxGraphModel>
  </diagram>
</mxfile>
